<svg id="svg" version="1.1" width="400" height="399.5433789954338" viewBox="0 0 400 399.5433789954338" xmlns="http://www.w3.org/2000/svg" xmlns:xlink="http://www.w3.org/1999/xlink" ><g id="svgg"><path id="path0" d="" stroke="none" fill="#0000ff" fill-rule="evenodd"></path><path id="path1" d="M188.412 0.625 C 184.438 1.231,178.269 2.679,177.632 3.156 C 177.407 3.324,175.784 3.968,174.026 4.586 C 172.268 5.205,170.559 5.923,170.230 6.182 C 169.900 6.441,168.458 7.200,167.026 7.869 C 165.593 8.538,164.178 9.379,163.880 9.737 C 163.582 10.096,163.136 10.393,162.888 10.398 C 161.703 10.419,152.096 18.056,148.910 21.510 C 148.438 22.022,147.280 23.281,146.336 24.307 C 145.393 25.334,144.179 26.630,143.639 27.188 C 143.099 27.746,142.657 28.320,142.657 28.465 C 142.657 28.610,141.735 29.948,140.607 31.438 C 139.480 32.927,138.383 34.645,138.170 35.255 C 137.958 35.865,137.626 36.364,137.432 36.364 C 137.239 36.364,136.445 37.721,135.668 39.381 C 134.891 41.040,134.123 42.329,133.961 42.245 C 131.289 40.858,126.301 39.411,122.478 38.914 C 121.379 38.772,120.227 38.454,119.919 38.209 C 118.913 37.408,97.756 37.629,97.251 38.445 C 97.144 38.619,96.482 38.770,95.781 38.780 C 92.959 38.823,78.395 43.508,77.553 44.644 C 77.426 44.815,76.109 45.547,74.625 46.271 C 73.142 46.994,71.928 47.728,71.928 47.902 C 71.928 48.075,71.434 48.465,70.829 48.768 C 69.531 49.420,64.647 52.991,62.937 54.539 C 58.068 58.948,53.177 64.107,52.148 65.920 C 51.928 66.307,51.237 67.233,50.613 67.977 C 49.301 69.541,45.168 75.965,45.160 76.452 C 45.157 76.633,44.924 77.011,44.643 77.293 C 44.361 77.574,43.602 79.135,42.956 80.761 C 42.311 82.386,41.663 83.806,41.517 83.916 C 41.212 84.146,39.396 89.824,38.961 91.908 C 38.800 92.677,38.517 93.496,38.331 93.728 C 35.624 97.108,35.601 130.963,38.305 133.067 C 38.609 133.303,40.494 140.665,40.296 140.842 C 40.221 140.908,39.222 141.434,38.076 142.009 C 35.683 143.211,31.253 145.961,30.370 146.793 C 30.040 147.104,29.105 147.805,28.292 148.353 C 22.881 151.994,10.390 166.588,10.390 169.268 C 10.390 169.509,10.057 170.007,9.651 170.375 C 9.245 170.742,8.396 172.343,7.765 173.933 C 7.134 175.523,6.491 176.915,6.336 177.028 C 6.013 177.263,5.022 179.960,3.255 185.415 C 0.274 194.618,-0.745 207.935,0.625 219.780 C 1.325 225.828,2.643 232.299,3.218 232.501 C 3.426 232.574,3.596 232.902,3.596 233.229 C 3.596 234.268,6.080 241.359,6.444 241.359 C 6.636 241.359,6.793 241.534,6.793 241.748 C 6.793 243.320,12.909 253.782,16.260 257.942 C 20.294 262.951,25.743 268.411,28.856 270.562 C 29.579 271.062,30.474 271.753,30.845 272.099 C 31.217 272.445,32.705 273.447,34.153 274.326 C 36.565 275.790,36.769 276.018,36.580 277.048 C 35.422 283.358,36.663 303.790,38.331 305.872 C 38.517 306.104,38.800 306.923,38.961 307.692 C 39.437 309.970,41.226 315.468,41.563 315.684 C 41.734 315.794,42.445 317.368,43.144 319.181 C 43.842 320.994,44.541 322.478,44.697 322.478 C 44.852 322.478,45.193 322.972,45.453 323.576 C 46.046 324.951,47.059 326.662,48.353 328.472 C 48.903 329.241,49.532 330.158,49.751 330.510 C 51.956 334.048,56.590 339.184,62.695 344.855 C 64.004 346.072,69.765 350.308,70.829 350.837 C 71.434 351.138,71.928 351.535,71.928 351.720 C 71.928 351.904,73.142 352.638,74.625 353.350 C 76.109 354.063,77.380 354.772,77.450 354.926 C 77.520 355.081,79.048 355.763,80.846 356.441 C 82.645 357.120,84.476 357.838,84.915 358.038 C 86.602 358.805,89.448 359.587,92.907 360.235 C 94.885 360.606,96.935 361.118,97.463 361.374 C 98.117 361.690,101.706 361.838,108.692 361.838 C 115.678 361.838,119.267 361.690,119.920 361.374 C 120.447 361.118,122.498 360.614,124.476 360.253 C 128.052 359.601,131.704 358.595,132.468 358.051 C 133.914 357.020,134.252 357.251,135.641 360.216 C 136.399 361.837,137.212 363.282,137.447 363.427 C 137.682 363.572,138.119 364.263,138.418 364.962 C 138.915 366.125,141.676 370.135,143.939 372.981 C 145.631 375.110,155.952 385.215,156.433 385.215 C 156.695 385.215,157.434 385.749,158.075 386.402 C 158.716 387.056,159.368 387.595,159.523 387.601 C 159.806 387.612,162.453 389.280,163.283 389.970 C 167.183 393.214,179.647 397.728,188.085 398.952 C 198.506 400.464,218.994 398.961,222.378 396.437 C 222.597 396.273,224.216 395.632,225.974 395.013 C 227.732 394.393,229.394 393.713,229.667 393.500 C 229.940 393.288,231.390 392.519,232.890 391.791 C 234.390 391.064,235.852 390.185,236.139 389.840 C 236.426 389.494,236.865 389.211,237.114 389.211 C 237.363 389.211,238.881 388.222,240.488 387.013 C 242.095 385.804,243.517 384.815,243.649 384.815 C 244.162 384.815,254.413 374.712,256.238 372.408 C 258.503 369.549,260.858 366.185,261.542 364.835 C 261.931 364.066,262.381 363.347,262.542 363.237 C 262.703 363.127,263.490 361.733,264.290 360.140 C 265.090 358.546,265.826 357.243,265.927 357.243 C 266.027 357.243,266.789 357.597,267.620 358.030 C 269.301 358.906,274.452 360.287,277.522 360.686 C 278.621 360.829,279.700 361.070,279.920 361.221 C 281.105 362.039,301.751 362.146,302.558 361.339 C 302.832 361.064,303.426 360.838,303.876 360.836 C 305.344 360.829,313.147 358.924,314.937 358.135 C 315.898 357.712,317.807 356.957,319.181 356.456 C 320.554 355.956,321.678 355.378,321.678 355.172 C 321.678 354.966,321.843 354.900,322.044 355.024 C 322.245 355.148,322.470 355.114,322.543 354.948 C 322.617 354.781,323.838 354.033,325.258 353.285 C 326.677 352.537,328.194 351.593,328.630 351.187 C 329.065 350.782,329.638 350.450,329.903 350.450 C 330.168 350.450,330.916 349.954,331.564 349.348 C 332.213 348.742,333.502 347.720,334.430 347.078 C 340.212 343.070,351.924 329.110,354.309 323.381 C 354.653 322.554,355.068 321.788,355.230 321.678 C 355.392 321.568,356.016 320.310,356.617 318.881 C 357.218 317.453,357.960 315.744,358.266 315.085 C 358.891 313.741,360.318 309.103,361.586 304.296 C 362.959 299.088,363.399 294.434,363.418 284.883 L 363.437 275.859 365.958 274.293 C 367.345 273.432,368.783 272.445,369.155 272.099 C 369.526 271.753,370.460 271.043,371.229 270.520 C 376.599 266.868,386.099 255.876,389.240 249.682 C 389.723 248.730,390.240 247.862,390.390 247.752 C 390.804 247.449,392.807 243.268,392.807 242.707 C 392.807 242.437,393.061 241.961,393.372 241.651 C 393.938 241.084,396.404 234.194,396.404 233.177 C 396.404 232.879,396.574 232.574,396.783 232.501 C 397.351 232.301,399.092 223.065,399.632 217.383 C 400.563 207.592,398.960 189.446,396.816 185.494 C 396.613 185.121,395.883 183.062,395.194 180.919 C 394.504 178.776,393.775 177.023,393.573 177.023 C 393.372 177.023,393.207 176.827,393.207 176.588 C 393.207 176.022,390.836 170.899,390.451 170.634 C 390.288 170.521,389.753 169.588,389.261 168.560 C 388.770 167.532,387.750 165.914,386.995 164.964 C 386.240 164.014,385.620 163.079,385.618 162.886 C 385.616 162.692,385.030 161.863,384.316 161.043 C 383.601 160.223,382.208 158.585,381.219 157.403 C 380.230 156.220,378.449 154.352,377.262 153.251 C 376.074 152.150,374.456 150.646,373.666 149.909 C 372.875 149.172,371.734 148.313,371.129 148.000 C 370.525 147.688,370.030 147.294,370.030 147.126 C 370.030 146.957,368.816 146.114,367.333 145.252 C 365.849 144.389,364.427 143.482,364.173 143.236 C 363.919 142.990,362.707 142.355,361.480 141.824 C 359.842 141.116,359.315 140.700,359.497 140.260 C 360.036 138.960,361.216 134.417,361.227 133.600 C 361.234 133.124,361.407 132.674,361.613 132.601 C 363.104 132.069,364.033 110.328,362.917 102.098 C 362.280 97.400,359.672 87.540,358.266 84.515 C 357.960 83.856,357.218 82.148,356.617 80.719 C 356.016 79.291,355.392 78.032,355.230 77.922 C 355.068 77.812,354.660 77.061,354.323 76.252 C 353.752 74.880,349.964 68.824,348.686 67.240 C 343.255 60.509,334.429 51.561,333.209 51.551 C 333.068 51.549,332.374 51.009,331.668 50.350 C 330.963 49.690,330.168 49.151,329.903 49.151 C 329.638 49.151,329.059 48.813,328.616 48.401 C 328.173 47.988,326.656 47.044,325.244 46.303 C 323.832 45.562,322.617 44.819,322.543 44.653 C 322.470 44.487,322.245 44.452,322.044 44.577 C 321.843 44.701,321.678 44.634,321.678 44.428 C 321.678 44.222,320.554 43.644,319.181 43.144 C 317.807 42.644,315.898 41.888,314.937 41.465 C 313.147 40.676,305.344 38.771,303.876 38.765 C 303.426 38.763,302.832 38.536,302.558 38.262 C 301.886 37.590,280.922 37.540,280.082 38.209 C 279.773 38.454,278.621 38.772,277.522 38.914 C 273.704 39.410,268.739 40.849,266.047 42.241 C 265.889 42.322,265.102 41.078,264.298 39.476 C 263.493 37.874,262.703 36.474,262.542 36.364 C 262.381 36.254,261.931 35.534,261.542 34.765 C 260.817 33.334,258.257 29.660,256.262 27.188 C 254.871 25.465,246.717 17.310,245.130 16.055 C 241.921 13.517,237.512 10.407,237.112 10.399 C 236.864 10.394,236.426 10.107,236.139 9.761 C 235.852 9.415,234.390 8.537,232.890 7.809 C 231.390 7.081,229.940 6.312,229.667 6.100 C 229.394 5.888,227.732 5.207,225.974 4.588 C 224.216 3.968,222.597 3.327,222.378 3.163 C 219.087 0.708,198.141 -0.857,188.412 0.625 M265.155 124.626 C 265.364 124.819,266.477 125.282,267.628 125.656 C 269.741 126.341,274.126 130.084,274.126 131.201 C 274.126 131.475,274.500 132.411,274.958 133.282 C 276.982 137.130,275.408 144.286,271.628 148.425 C 271.024 149.087,270.529 149.774,270.529 149.951 C 270.529 150.316,266.488 156.468,265.531 157.558 C 265.186 157.951,264.574 158.861,264.170 159.579 C 263.159 161.379,259.902 166.278,259.138 167.148 C 258.793 167.542,258.139 168.525,257.684 169.334 C 257.230 170.143,256.068 171.912,255.102 173.266 C 254.137 174.619,253.344 175.883,253.340 176.075 C 253.336 176.267,252.886 176.847,252.341 177.365 C 251.795 177.882,251.349 178.484,251.349 178.702 C 251.349 178.921,250.360 180.503,249.151 182.218 C 247.942 183.933,246.950 185.489,246.946 185.675 C 246.942 185.862,246.493 186.437,245.947 186.955 C 245.401 187.473,244.955 188.070,244.955 188.282 C 244.955 188.600,242.153 192.834,239.581 196.404 C 239.264 196.843,237.832 199.001,236.398 201.199 C 234.964 203.397,233.532 205.554,233.215 205.994 C 231.555 208.296,228.963 212.244,228.415 213.303 C 228.072 213.967,227.558 214.752,227.274 215.047 C 226.989 215.343,225.517 217.473,224.003 219.780 C 222.489 222.088,220.949 224.426,220.582 224.975 C 218.513 228.066,214.465 234.079,213.990 234.765 C 213.687 235.205,212.253 237.363,210.803 239.560 C 209.354 241.758,207.898 243.916,207.568 244.356 C 207.238 244.795,205.799 246.953,204.371 249.151 C 202.943 251.349,201.505 253.506,201.175 253.946 C 200.844 254.386,199.406 256.543,197.978 258.741 C 196.550 260.939,195.114 263.097,194.786 263.536 C 194.459 263.976,193.250 265.766,192.101 267.513 C 186.195 276.488,178.278 278.183,170.629 272.110 C 168.733 270.604,122.519 224.285,122.317 223.688 C 122.229 223.427,121.847 222.881,121.468 222.474 C 119.549 220.414,119.407 212.349,121.235 209.230 C 125.614 201.758,137.766 199.394,142.282 205.135 C 142.740 205.717,143.263 206.194,143.443 206.194 C 143.623 206.194,151.208 213.654,160.297 222.772 C 169.386 231.890,177.003 239.352,177.223 239.354 C 177.549 239.357,180.793 234.866,183.374 230.839 C 183.680 230.361,184.689 228.801,185.616 227.373 C 186.544 225.944,187.636 224.191,188.043 223.477 C 188.451 222.762,188.908 222.178,189.059 222.178 C 189.210 222.178,189.906 221.166,190.604 219.928 C 191.302 218.691,192.209 217.318,192.620 216.877 C 193.031 216.437,193.635 215.511,193.963 214.820 C 194.290 214.130,194.932 213.120,195.388 212.577 C 196.417 211.350,200.217 205.582,200.974 204.096 C 201.282 203.492,201.666 202.997,201.828 202.997 C 201.989 202.997,202.693 201.985,203.391 200.748 C 204.089 199.510,204.981 198.154,205.373 197.733 C 205.766 197.312,206.498 196.166,207.002 195.187 C 207.506 194.208,208.052 193.407,208.216 193.407 C 208.381 193.407,209.086 192.394,209.785 191.157 C 210.483 189.920,211.390 188.547,211.801 188.106 C 212.212 187.665,212.831 186.708,213.177 185.979 C 213.522 185.250,214.217 184.151,214.721 183.536 C 215.225 182.921,216.069 181.698,216.597 180.819 C 217.125 179.940,217.868 178.882,218.249 178.468 C 218.630 178.053,219.209 177.150,219.536 176.460 C 219.864 175.770,220.592 174.670,221.154 174.016 C 221.717 173.362,222.177 172.687,222.177 172.516 C 222.178 172.258,224.938 168.047,227.211 164.835 C 228.572 162.913,231.250 158.832,232.168 157.283 C 232.717 156.355,233.403 155.337,233.692 155.021 C 233.980 154.704,235.384 152.647,236.810 150.450 C 238.237 148.252,239.663 146.094,239.980 145.654 C 240.296 145.215,241.714 143.057,243.132 140.859 C 244.549 138.661,245.950 136.587,246.246 136.249 C 246.541 135.911,247.210 134.922,247.733 134.051 C 250.834 128.880,255.017 125.075,257.599 125.075 C 257.897 125.075,258.142 124.895,258.142 124.675 C 258.142 124.179,264.621 124.134,265.155 124.626 " stroke="none" fill="#1da1f2" fill-rule="evenodd"></path><path id="path2" d="" stroke="none" fill="#00cccc" fill-rule="evenodd"></path><path id="path3" d="" stroke="none" fill="#40bfff" fill-rule="evenodd"></path><path id="path4" d="" stroke="none" fill="#00ffff" fill-rule="evenodd"></path></g></svg>